# xmcd CD database file
#
# Track frame offsets:
#	150
#	14942
#	31910
#	60060
#	90847
#	115320
#	131992
#	152557
#	179430
#	204197
#	236250
#	266717
#
# Disc length: 4440 seconds
#
# Revision: 0
# Processed by: cddbd v1.5PL3 Copyright (c) Steve Scherf et al.
# Submitted via: CDex 1.51
#
DISCID=9511560c
DTITLE=SEX MACHINEGUNS - LIVE!! Final Attack at BUDOKAN Disc1
DYEAR=2003
DGENRE=Heavy Metal
TTITLE0=Introduction
TTITLE1=食べたい なめたい 危険地帯
TTITLE2=ファミレス・ボンバー
TTITLE3=Japan
TTITLE4=フェロモン
TTITLE5=ONIGUNSOW
TTITLE6=サイレン
TTITLE7=悪魔の化身
TTITLE8=そこに、あなたが....
TTITLE9=Iron Cross
TTITLE10=S.H.R -セクシーヒーローレヴォリューション-
TTITLE11=このCDはコピーコントロールCDです。
EXTD=YEAR: 2003
EXTT0=
EXTT1=
EXTT2=
EXTT3=
EXTT4=
EXTT5=
EXTT6=
EXTT7=
EXTT8=
EXTT9=
EXTT10=
EXTT11=
PLAYORDER=
